<?xml version="1.0" standalone="no"?>
<!DOCTYPE svg PUBLIC "-//W3C//DTD SVG 20010904//EN"
 "http://www.w3.org/TR/2001/REC-SVG-20010904/DTD/svg10.dtd">
<svg version="1.0" xmlns="http://www.w3.org/2000/svg"
 width="512.000000pt" height="512.000000pt" viewBox="0 0 512.000000 512.000000"
 preserveAspectRatio="xMidYMid meet">
<metadata>
Created by potrace 1.14, written by Peter Selinger 2001-2017
</metadata>
<g transform="translate(0.000000,512.000000) scale(0.100000,-0.100000)"
fill="#000000" stroke="none">
<path d="M0 2560 l0 -2560 2560 0 2560 0 0 2560 0 2560 -2560 0 -2560 0 0
-2560z m1620 671 c0 -5 -22 -69 -49 -143 l-48 -133 -252 -3 -251 -2 0 -135 0
-135 201 0 c157 0 200 -3 197 -12 -3 -7 -26 -73 -53 -145 l-48 -133 -148 0
-149 0 -2 -242 -3 -243 -207 -3 -208 -2 0 670 0 670 510 0 c300 0 510 -4 510
-9z m540 -661 l0 -670 -205 0 -205 0 0 670 0 670 205 0 205 0 0 -670z m1304
648 c-4 -13 -27 -78 -51 -145 l-45 -123 -252 -2 -251 -3 -3 -132 -3 -133 201
0 c153 0 200 -3 200 -12 0 -7 -21 -73 -47 -145 l-48 -133 -150 -2 -150 -3 -3
-242 -2 -243 -205 0 -205 0 0 670 0 670 511 0 510 0 -7 -22z m948 -633 c130
-357 237 -658 237 -668 1 -16 -13 -17 -206 -15 l-206 3 -26 88 -25 87 -235 -2
-235 -3 -26 -85 -26 -85 -202 -3 c-122 -1 -202 1 -202 7 0 7 396 1102 467
1289 l16 42 216 -2 215 -3 238 -650z"/>
<path d="M3872 2618 c-40 -139 -72 -259 -72 -265 0 -10 38 -13 155 -13 85 0
155 3 155 8 0 16 -154 522 -159 522 -4 0 -39 -114 -79 -252z"/>
</g>
</svg>
